<?xml version="1.0" standalone="no"?>
<!DOCTYPE svg PUBLIC "-//W3C//DTD SVG 20010904//EN"
 "http://www.w3.org/TR/2001/REC-SVG-20010904/DTD/svg10.dtd">
<svg version="1.0" xmlns="http://www.w3.org/2000/svg"
 width="1024.000000pt" height="1024.000000pt" viewBox="0 0 1024.000000 1024.000000"
 preserveAspectRatio="xMidYMid meet">

<g transform="translate(0.000000,1024.000000) scale(0.100000,-0.100000)"
fill="#000000" stroke="none">
<path d="M0 5120 l0 -5120 5120 0 5120 0 0 5120 0 5120 -5120 0 -5120 0 0
-5120z m8585 5014 c91 -34 147 -43 198 -32 113 24 138 29 217 39 144 19 414
-2 446 -34 4 -4 14 -7 23 -7 9 0 63 -23 121 -51 80 -40 119 -66 165 -113 60
-60 125 -172 125 -214 0 -10 3 -22 7 -26 4 -4 13 -33 20 -64 29 -137 9 -216
-83 -343 -45 -61 -151 -169 -166 -169 -16 0 -6 -18 37 -65 56 -62 91 -132 121
-244 27 -100 29 -149 10 -225 -29 -111 -89 -197 -181 -263 -182 -129 -338
-157 -524 -94 -91 30 -98 31 -275 31 -200 0 -285 12 -370 54 -60 30 -140 104
-160 149 -76 173 7 331 158 303 42 -8 93 -53 100 -89 3 -15 8 -38 11 -52 3
-15 20 -34 38 -45 29 -18 51 -20 222 -20 191 0 268 -9 365 -44 92 -32 179 -14
262 54 37 31 68 80 68 108 0 48 -53 165 -84 185 -41 27 -334 137 -363 137 -35
0 -87 33 -116 72 -31 42 -27 118 7 163 41 53 80 65 219 65 155 0 214 15 291
74 43 33 126 142 126 165 0 33 -43 149 -64 174 -26 31 -108 75 -198 109 -56
21 -79 23 -218 22 -144 0 -239 -14 -281 -39 -5 -4 -58 -7 -118 -6 -91 0 -119
5 -182 28 -58 21 -97 28 -176 30 l-103 4 -71 -47 c-56 -38 -82 -64 -121 -124
-28 -41 -64 -89 -79 -105 -18 -19 -34 -52 -42 -84 -6 -30 -23 -66 -38 -82 -47
-50 -133 -58 -192 -17 -42 30 -57 68 -57 148 0 81 18 128 81 205 22 28 63 84
91 125 61 88 72 99 158 164 61 45 124 79 195 103 17 6 93 11 170 12 128 1 146
-1 210 -25z m-4190 -395 c24 -11 55 -34 67 -50 l23 -29 220 0 c236 0 286 -8
365 -58 24 -15 51 -22 84 -22 47 0 100 -12 138 -31 9 -4 54 -17 100 -28 45
-11 106 -31 133 -44 60 -29 139 -57 162 -57 27 0 82 -21 166 -62 43 -21 86
-38 96 -38 9 0 21 -4 27 -10 11 -11 162 -40 211 -40 39 0 144 -26 180 -46 16
-7 34 -14 42 -14 8 0 28 -4 45 -9 17 -6 58 -18 91 -27 33 -10 67 -21 75 -25 8
-5 43 -18 78 -30 34 -12 62 -24 62 -28 0 -3 15 -12 33 -20 31 -14 140 -80 163
-99 6 -5 21 -13 35 -17 29 -9 242 -115 249 -124 3 -3 19 -13 35 -21 30 -14 82
-46 179 -108 27 -18 57 -32 67 -32 10 0 20 -4 24 -9 3 -6 25 -20 49 -32 24
-12 55 -32 70 -45 14 -13 29 -24 34 -24 5 0 17 -9 28 -21 10 -11 38 -34 62
-50 23 -16 48 -33 55 -39 6 -6 40 -32 73 -58 62 -48 85 -62 184 -115 30 -17
80 -49 111 -72 31 -24 67 -48 79 -55 13 -7 38 -28 57 -46 18 -19 38 -34 42
-34 12 0 391 -380 391 -393 0 -5 8 -17 19 -26 10 -9 25 -30 35 -48 9 -18 22
-36 30 -40 7 -4 20 -21 29 -38 8 -16 27 -41 41 -54 14 -14 26 -30 26 -37 0 -7
4 -14 8 -16 11 -4 92 -113 92 -122 0 -4 24 -55 53 -114 29 -59 61 -133 71
-164 10 -32 22 -60 27 -64 5 -3 9 -13 9 -23 0 -10 22 -63 50 -117 42 -83 93
-225 177 -499 9 -27 20 -54 24 -59 5 -6 9 -17 9 -26 0 -9 9 -36 21 -60 20 -41
39 -101 59 -180 4 -19 13 -48 18 -65 24 -71 32 -103 32 -131 0 -17 7 -39 15
-50 8 -10 15 -31 15 -45 0 -15 7 -40 15 -55 8 -16 15 -38 15 -48 0 -11 4 -33
9 -50 35 -116 64 -202 71 -211 11 -13 40 -127 40 -155 0 -12 6 -36 14 -53 8
-18 18 -50 22 -72 12 -56 8 -553 -6 -770 -6 -99 -12 -238 -14 -310 -2 -71 -9
-177 -15 -235 -7 -58 -16 -148 -21 -200 -10 -101 -34 -301 -49 -410 -8 -59
-18 -101 -51 -212 -6 -21 -15 -38 -20 -38 -6 0 -10 -7 -10 -16 0 -9 -6 -28
-14 -42 -17 -34 -36 -93 -36 -114 0 -19 -28 -112 -45 -153 -30 -67 -47 -101
-63 -126 -56 -85 -72 -107 -101 -138 -17 -18 -31 -37 -31 -41 0 -5 -96 -104
-213 -222 -117 -117 -225 -229 -241 -248 -15 -19 -60 -69 -100 -110 -39 -41
-84 -92 -99 -113 -16 -20 -38 -47 -50 -60 -13 -12 -33 -38 -47 -57 -26 -36
-140 -150 -151 -150 -4 0 -26 -18 -50 -40 -24 -22 -47 -40 -50 -40 -4 0 -21
-12 -37 -27 -17 -16 -50 -39 -73 -53 -22 -14 -51 -33 -63 -44 -18 -16 -57 -43
-114 -81 -9 -5 -26 -19 -39 -30 -13 -10 -55 -37 -92 -60 -99 -57 -132 -78
-161 -97 -14 -10 -32 -20 -40 -24 -8 -3 -61 -28 -117 -55 -57 -27 -106 -49
-111 -49 -5 0 -45 -18 -90 -40 -44 -22 -85 -40 -91 -40 -6 0 -27 -7 -48 -16
-21 -9 -47 -20 -58 -25 -26 -10 -141 -39 -228 -58 -21 -5 -44 -14 -50 -20 -6
-6 -25 -11 -42 -11 -17 0 -35 -4 -41 -10 -5 -5 -30 -14 -54 -19 -25 -5 -70
-17 -100 -26 -75 -23 -183 -37 -255 -34 -111 4 -150 2 -240 -14 -116 -21 -163
-32 -200 -47 -19 -8 -93 -14 -200 -15 -93 -2 -197 -8 -230 -15 -33 -6 -202
-12 -375 -14 -305 -4 -492 5 -514 23 -6 5 -27 11 -46 14 -19 3 -55 10 -80 16
-67 15 -129 13 -185 -6 -27 -10 -52 -21 -55 -25 -8 -11 -167 -82 -230 -104
-44 -15 -85 -18 -210 -18 -151 1 -195 7 -275 43 -11 5 -53 24 -92 42 -40 17
-73 36 -73 40 0 5 -17 20 -38 33 -49 32 -137 118 -156 153 -8 15 -26 39 -41
53 -26 25 -30 25 -208 27 -244 2 -512 39 -552 74 -5 5 -19 9 -31 9 -13 0 -25
4 -28 9 -3 5 -18 12 -32 15 -14 4 -49 18 -77 31 -28 14 -55 25 -60 25 -12 0
-330 159 -337 168 -3 4 -34 23 -70 41 -36 19 -67 37 -70 40 -3 3 -14 12 -25
19 -55 35 -83 53 -109 74 -37 29 -81 56 -177 107 -69 36 -196 116 -226 141 -7
5 -16 10 -21 10 -4 0 -17 8 -28 18 -10 10 -27 23 -36 28 -9 5 -42 33 -72 62
-31 28 -60 52 -65 52 -4 0 -32 27 -62 59 -58 63 -62 68 -99 121 -13 19 -30 41
-37 48 -7 7 -13 18 -13 22 0 11 -107 120 -118 120 -7 0 -86 68 -130 112 -29
28 -62 74 -62 85 0 6 -4 13 -9 15 -15 5 -91 164 -108 225 -12 41 -17 102 -17
208 -1 166 14 249 61 333 25 44 25 49 17 151 -4 58 -8 149 -9 201 -1 52 -7
138 -14 190 -16 112 -17 462 -2 570 17 122 40 272 50 320 5 25 12 63 16 85 7
42 30 122 48 165 5 14 14 43 19 65 23 102 40 158 59 197 4 9 18 56 29 105 12
48 26 92 31 98 5 5 9 19 9 32 0 19 33 101 61 153 62 114 64 119 89 235 5 27
15 54 20 59 6 6 10 21 10 36 1 14 7 36 15 50 8 14 14 35 15 46 0 24 27 120 41
146 5 10 9 26 9 35 0 10 7 27 15 37 8 11 15 29 15 40 0 27 24 98 54 161 13 28
32 69 42 93 9 23 20 42 23 42 3 0 12 15 19 33 8 17 25 57 38 88 13 31 24 60
24 64 0 4 7 21 15 38 18 41 113 319 126 372 6 22 14 64 19 94 5 29 13 58 19
64 6 6 11 20 11 32 0 12 4 25 9 31 8 8 19 37 62 164 7 19 16 44 21 55 4 11 13
43 19 70 5 28 14 66 19 85 5 19 14 57 20 85 5 27 15 54 20 59 6 6 10 21 10 34
0 13 5 33 12 45 11 21 15 36 38 142 5 27 15 54 20 59 6 6 10 21 10 34 0 13 5
33 12 45 11 21 15 36 38 142 5 27 15 54 20 59 6 6 10 24 10 41 0 16 7 39 15
49 8 11 15 28 15 38 0 55 91 272 129 308 9 8 25 31 35 50 11 19 38 60 60 90
23 30 46 63 53 74 14 25 105 127 198 222 39 39 104 109 145 155 129 142 293
302 380 369 25 19 47 37 50 41 8 11 260 134 332 163 38 15 89 31 115 37 106
22 119 26 143 39 20 11 84 14 305 15 255 0 285 -2 323 -19 39 -18 45 -18 80
-4 64 27 114 35 215 37 80 1 105 -3 142 -20z"/>
<path d="M4610 7860 c-8 -5 -31 -10 -50 -10 -19 0 -46 -7 -60 -15 -16 -9 -55
-14 -112 -15 -58 0 -88 -4 -90 -12 -3 -7 -31 -15 -64 -19 -32 -5 -81 -13 -109
-18 -27 -5 -74 -14 -103 -20 -30 -6 -59 -14 -65 -19 -7 -5 -30 -13 -52 -17
-21 -3 -56 -15 -77 -26 -20 -10 -44 -19 -52 -19 -9 0 -55 -18 -102 -40 -48
-22 -93 -40 -100 -40 -7 0 -25 -10 -41 -22 -31 -26 -50 -37 -108 -69 -22 -11
-42 -25 -45 -29 -3 -4 -34 -22 -70 -40 -36 -18 -67 -36 -70 -40 -3 -4 -18 -14
-35 -23 -16 -8 -41 -27 -54 -41 -14 -14 -30 -26 -38 -26 -7 0 -13 -3 -13 -7 0
-5 -17 -19 -38 -33 -57 -38 -213 -181 -284 -259 -8 -9 -24 -25 -36 -36 -11
-11 -34 -33 -50 -50 -16 -16 -43 -41 -60 -55 -18 -14 -34 -32 -37 -40 -3 -8
-24 -35 -47 -60 -24 -25 -60 -71 -81 -102 -20 -31 -43 -63 -50 -70 -6 -7 -21
-30 -32 -51 -11 -20 -29 -47 -40 -60 -11 -12 -36 -42 -56 -67 -20 -25 -50 -60
-68 -79 -17 -18 -31 -37 -31 -41 0 -5 -6 -15 -13 -22 -7 -7 -24 -29 -37 -48
-13 -19 -36 -46 -50 -60 -14 -14 -29 -33 -35 -42 -5 -8 -27 -40 -48 -69 -21
-30 -53 -76 -72 -104 -19 -27 -39 -55 -45 -62 -5 -7 -10 -15 -10 -19 0 -3 -13
-26 -30 -51 -16 -24 -30 -47 -30 -50 0 -3 -11 -20 -24 -37 -12 -17 -31 -47
-41 -66 -10 -19 -21 -37 -24 -40 -3 -3 -10 -12 -16 -21 -34 -54 -66 -98 -94
-128 -17 -18 -31 -41 -31 -51 0 -11 -4 -21 -9 -25 -31 -18 -58 -155 -32 -155
5 0 13 -9 16 -20 8 -27 55 -50 100 -50 60 0 145 68 190 153 11 20 29 48 40 60
19 22 24 29 65 92 10 17 23 35 27 40 5 6 22 36 38 68 17 31 39 67 50 80 11 12
31 42 44 67 14 25 32 52 40 60 18 17 36 45 50 75 5 11 24 36 41 55 17 19 38
49 47 65 9 17 24 39 34 50 36 39 59 68 59 75 0 4 23 31 50 60 28 29 50 56 50
59 0 3 23 30 50 59 27 29 52 62 55 73 4 10 10 19 15 19 5 0 11 9 15 19 3 11
20 35 37 53 17 18 37 47 44 63 7 17 30 48 51 70 21 22 46 53 56 68 9 15 23 27
30 28 6 0 41 32 77 71 166 179 281 284 378 343 9 6 24 17 32 26 8 8 35 26 60
40 25 13 49 27 55 32 37 27 100 65 160 95 39 19 78 41 87 49 28 25 138 73 167
73 14 0 43 11 64 25 35 24 78 37 177 54 25 4 55 13 67 19 12 7 37 12 57 12 19
0 36 5 38 12 5 13 72 24 228 38 118 10 186 24 225 44 45 24 546 24 590 0 28
-16 83 -23 335 -43 131 -11 219 -26 233 -40 6 -6 20 -11 32 -11 12 0 26 -5 32
-11 6 -6 29 -15 50 -20 21 -4 59 -13 85 -18 26 -6 55 -14 65 -20 10 -5 49 -23
86 -40 55 -26 90 -53 183 -146 63 -63 118 -115 122 -115 4 0 25 -16 47 -36 22
-19 56 -44 75 -54 19 -10 44 -27 56 -38 12 -11 39 -29 61 -40 21 -11 67 -48
101 -82 34 -34 89 -74 121 -90 67 -34 120 -83 150 -141 12 -22 30 -50 42 -62
21 -23 49 -74 49 -90 0 -5 13 -26 28 -46 16 -20 42 -61 58 -91 16 -30 39 -66
52 -80 12 -14 22 -33 22 -42 0 -10 16 -35 35 -57 19 -21 35 -41 35 -45 0 -9
38 -63 68 -96 12 -13 22 -32 22 -42 0 -9 11 -30 25 -46 14 -17 25 -35 25 -41
0 -6 4 -11 9 -11 5 0 19 -31 31 -70 12 -38 26 -72 31 -75 5 -4 9 -17 9 -31 0
-13 4 -24 10 -24 12 0 30 -58 40 -130 12 -77 32 -149 55 -190 18 -34 25 -65
44 -194 5 -32 14 -63 20 -69 6 -6 11 -27 11 -47 0 -20 11 -69 25 -110 16 -51
25 -98 25 -146 0 -46 5 -77 15 -90 10 -13 14 -45 15 -101 0 -46 4 -83 9 -83 5
0 13 -9 16 -20 9 -29 56 -50 111 -50 39 0 51 5 81 35 l34 34 -5 133 c-6 168
-18 287 -32 313 -30 54 -44 117 -62 275 -4 36 -13 75 -20 87 -7 12 -12 35 -12
51 0 30 -24 87 -41 97 -5 4 -9 19 -9 34 0 16 -7 48 -15 71 -8 23 -15 58 -15
76 0 19 -4 42 -10 52 -16 30 -38 85 -56 140 -9 29 -20 55 -25 58 -5 3 -9 14
-9 25 0 10 -4 27 -9 37 -5 9 -19 36 -30 60 -12 24 -30 53 -41 64 -11 12 -29
39 -40 60 -11 22 -29 49 -40 60 -11 12 -20 25 -20 29 0 5 -13 28 -30 52 -16
25 -30 48 -30 52 0 4 -8 15 -19 24 -10 9 -26 32 -36 51 -10 19 -26 46 -35 60
-33 47 -86 135 -100 165 -8 17 -32 53 -52 81 -21 28 -38 54 -38 57 0 12 -52
83 -93 125 -23 24 -68 57 -101 72 -32 16 -84 53 -115 82 -64 59 -100 86 -151
112 -50 25 -97 60 -157 117 -28 27 -56 49 -61 49 -5 0 -34 26 -64 58 -87 92
-173 169 -196 176 -12 4 -22 12 -22 17 0 5 -9 9 -19 9 -10 0 -39 11 -62 25
-24 14 -53 25 -64 25 -11 0 -51 12 -90 26 -105 38 -184 60 -269 73 -28 4 -52
13 -54 19 -2 8 -35 12 -94 12 -58 0 -101 5 -121 15 -44 19 -157 25 -612 31
-248 2 -395 0 -405 -6z"/>
<path d="M4421 6463 c-19 -3 -40 -11 -48 -19 -8 -8 -21 -14 -29 -14 -21 0 -88
-35 -103 -54 -8 -9 -24 -16 -37 -16 -12 0 -26 -5 -29 -10 -4 -6 -23 -19 -43
-29 -20 -11 -55 -36 -77 -55 -22 -20 -44 -36 -48 -36 -9 0 -98 -79 -219 -192
-39 -38 -80 -68 -90 -68 -11 0 -84 -65 -171 -152 -84 -84 -170 -166 -192 -183
-32 -23 -167 -157 -238 -235 -7 -8 -56 -56 -108 -107 -52 -50 -110 -108 -129
-130 -20 -21 -58 -58 -85 -83 -28 -25 -67 -65 -87 -90 -20 -25 -51 -61 -70
-80 -59 -63 -88 -129 -88 -202 0 -48 5 -70 17 -84 31 -34 71 -54 107 -54 65 0
97 26 137 109 19 39 136 170 264 293 50 48 108 106 130 129 57 59 250 248 313
305 77 70 170 163 222 220 25 28 61 61 80 75 19 13 46 34 60 47 13 12 28 22
31 22 4 0 42 34 85 75 43 41 82 75 86 75 4 0 27 18 50 40 24 22 47 40 52 40 5
0 16 8 25 18 21 23 109 86 152 108 19 9 36 20 39 24 3 4 28 19 57 34 51 25 58
26 230 26 159 0 184 -2 233 -21 30 -12 87 -25 126 -28 39 -3 77 -11 85 -17 23
-17 93 -34 142 -34 27 0 52 -6 61 -15 8 -8 24 -15 35 -15 11 0 22 -4 25 -9 9
-14 101 -41 140 -41 19 0 64 -13 99 -30 36 -16 71 -30 79 -30 54 0 232 -94
243 -128 2 -10 14 -24 26 -32 11 -8 48 -35 81 -60 33 -25 74 -55 91 -67 18
-13 37 -27 43 -31 45 -38 147 -108 184 -127 25 -13 62 -39 84 -59 21 -20 42
-36 47 -36 4 0 14 -6 21 -13 7 -6 30 -21 51 -32 20 -11 48 -30 62 -42 13 -13
28 -23 32 -23 4 0 32 -23 60 -50 29 -28 57 -50 62 -50 18 0 253 -245 288 -299
19 -30 43 -80 53 -111 10 -31 30 -79 44 -106 14 -27 30 -71 37 -99 6 -27 15
-60 20 -73 5 -13 9 -113 9 -222 0 -233 6 -256 78 -291 38 -19 49 -20 80 -10
46 14 62 27 85 68 15 27 17 61 17 275 0 199 -3 248 -15 264 -8 10 -15 36 -15
56 0 20 -4 39 -9 42 -5 4 -17 32 -27 64 -10 31 -35 92 -56 134 -21 42 -38 86
-38 98 0 35 -27 77 -97 148 -36 37 -77 83 -92 102 -36 48 -84 95 -110 109 -25
14 -77 59 -138 119 -24 24 -64 52 -88 63 -24 11 -50 25 -57 32 -15 13 -37 28
-82 55 -16 9 -38 26 -50 37 -31 28 -84 65 -94 65 -4 0 -17 9 -29 19 -11 11
-39 29 -62 40 -22 12 -41 26 -41 31 0 5 -37 35 -82 65 -137 94 -150 104 -225
175 -69 66 -118 100 -143 100 -7 0 -28 7 -48 16 -21 9 -52 22 -70 30 -18 8
-42 14 -52 14 -11 0 -43 11 -72 25 -32 16 -69 25 -98 25 -25 0 -50 4 -55 9
-19 19 -161 64 -215 68 -30 3 -60 9 -65 13 -24 19 -104 40 -157 40 -41 0 -74
8 -120 29 l-63 30 -235 -1 c-129 -1 -250 -3 -269 -5z"/>
<path d="M4385 4494 c-27 -14 -75 -25 -170 -41 -16 -2 -54 -16 -83 -29 -29
-13 -57 -24 -62 -24 -6 0 -10 -4 -10 -10 0 -5 -12 -13 -27 -16 -44 -11 -81
-32 -121 -70 -20 -18 -44 -34 -53 -34 -9 0 -35 -15 -57 -32 -22 -18 -63 -49
-91 -68 -54 -38 -81 -82 -81 -135 0 -68 57 -125 125 -125 41 0 168 64 213 108
8 7 30 19 50 28 21 8 49 27 64 41 26 25 59 47 88 58 8 3 38 17 65 30 28 14 67
25 87 25 20 0 38 5 40 12 6 18 102 30 280 35 181 4 199 0 257 -53 14 -13 32
-24 39 -24 14 0 73 -28 82 -39 3 -3 21 -15 42 -26 20 -11 51 -33 70 -50 40
-35 82 -60 121 -69 15 -3 27 -11 27 -16 0 -6 6 -10 14 -10 7 0 19 -7 27 -16 7
-8 36 -27 63 -41 28 -14 53 -29 56 -33 16 -24 87 -60 119 -60 20 -1 47 -7 61
-15 48 -28 122 -12 164 34 64 70 -18 231 -117 231 -17 0 -38 7 -47 15 -21 19
-179 115 -189 115 -5 0 -14 6 -20 14 -7 8 -33 24 -59 36 -26 12 -53 30 -62 39
-23 26 -93 71 -110 71 -8 0 -27 11 -42 25 -15 14 -36 25 -46 25 -11 0 -26 7
-33 17 -8 9 -50 33 -95 55 l-81 38 -234 0 c-194 0 -239 -3 -264 -16z"/>
</g>
</svg>
